<?xml version="1.0" encoding="UTF-8" standalone="no"?>
<svg width="236px" height="15px" viewBox="0 0 236 15" version="1.1" xmlns="http://www.w3.org/2000/svg" xmlns:xlink="http://www.w3.org/1999/xlink" xmlns:sketch="http://www.bohemiancoding.com/sketch/ns">
    <!-- Generator: Sketch 3.1.1 (8761) - http://www.bohemiancoding.com/sketch -->
    <title>Fill 2</title>
    <desc>Created with Sketch.</desc>
    <defs></defs>
    <g id="Page-1" stroke="none" stroke-width="1" fill="none" fill-rule="evenodd" sketch:type="MSPage">
        <g id="Landscape" sketch:type="MSArtboardGroup" transform="translate(-30.000000, -74.000000)" fill="#FFFFFF">
            <path d="M34.4705,74.994 L34.5795,74.738 L39.0155,74.738 C39.4415,74.738 39.8825,74.787 40.3395,74.885 C40.7955,74.982 41.2085,75.144 41.5805,75.368 C41.9515,75.594 42.2585,75.886 42.5025,76.244 C42.7455,76.603 42.8665,77.045 42.8665,77.568 C42.8665,78.006 42.7735,78.39 42.5845,78.718 C42.3955,79.047 42.1545,79.323 41.8625,79.549 C41.5715,79.773 41.2485,79.959 40.8965,80.105 C40.5425,80.251 40.2015,80.37 39.8735,80.461 C39.5455,80.553 39.2465,80.616 38.9795,80.652 C38.7115,80.69 38.5235,80.714 38.4135,80.726 L38.3765,80.78 C38.5715,80.805 38.8215,80.854 39.1255,80.927 C39.4295,81 39.7245,81.121 40.0105,81.292 C40.2965,81.462 40.5425,81.687 40.7495,81.967 C40.9565,82.247 41.0605,82.606 41.0605,83.044 C41.0605,83.349 41.0355,83.644 40.9875,83.93 C40.9385,84.216 40.8865,84.495 40.8315,84.77 C40.7775,85.043 40.7255,85.32 40.6765,85.6 C40.6275,85.88 40.6045,86.172 40.6045,86.476 C40.6045,86.816 40.6955,87.087 40.8775,87.288 C41.0605,87.489 41.2915,87.589 41.5715,87.589 C41.6685,87.589 41.7695,87.58 41.8725,87.561 C41.9755,87.544 42.0515,87.523 42.1005,87.498 L42.1735,87.735 C42.1125,87.747 41.9935,87.766 41.8185,87.79 C41.6415,87.815 41.4615,87.826 41.2795,87.826 C40.9505,87.826 40.6495,87.793 40.3755,87.727 C40.1025,87.659 39.8615,87.55 39.6545,87.397 C39.4475,87.246 39.2865,87.045 39.1705,86.795 C39.0555,86.546 38.9975,86.238 38.9975,85.873 C38.9975,85.69 39.0185,85.453 39.0615,85.161 C39.1045,84.869 39.1565,84.56 39.2165,84.23 C39.2655,83.914 39.3105,83.598 39.3535,83.281 C39.3965,82.965 39.4175,82.691 39.4175,82.46 C39.4175,82.241 39.3835,82.031 39.3175,81.83 C39.2495,81.63 39.1255,81.456 38.9435,81.31 C38.7605,81.164 38.5045,81.049 38.1765,80.963 C37.8475,80.878 37.4215,80.835 36.8985,80.835 L36.1505,80.835 L33.7585,87.479 L35.8585,87.479 L35.7665,87.735 L30.1625,87.735 L30.2535,87.479 L32.1155,87.479 L36.5705,74.994 L34.4705,74.994 L34.4705,74.994 Z M37.4465,80.58 C37.9325,80.58 38.3645,80.537 38.7415,80.452 C39.1185,80.367 39.4105,80.258 39.6175,80.123 C39.7885,80.014 39.9645,79.874 40.1475,79.703 C40.3295,79.533 40.4945,79.323 40.6405,79.074 C40.7865,78.824 40.9085,78.532 41.0055,78.197 C41.1025,77.863 41.1515,77.471 41.1515,77.021 C41.1515,76.339 40.9445,75.831 40.5315,75.496 C40.1165,75.161 39.6065,74.994 38.9975,74.994 L38.2315,74.994 L36.2235,80.58 L37.4465,80.58 L37.4465,80.58 Z M51.6655,74.994 L51.7395,74.738 L61.8885,74.738 L60.7755,77.842 L60.5195,77.842 C60.5685,77.708 60.6175,77.513 60.6655,77.258 C60.7135,77.002 60.7375,76.759 60.7375,76.527 C60.7375,76.077 60.6415,75.709 60.4465,75.423 C60.2515,75.138 59.8625,74.994 59.2785,74.994 L55.4265,74.994 L53.4005,80.635 L55.1155,80.635 C55.5055,80.635 55.8495,80.534 56.1475,80.333 C56.4465,80.133 56.7005,79.901 56.9135,79.64 C57.1265,79.378 57.3005,79.119 57.4345,78.864 C57.5685,78.608 57.6655,78.426 57.7265,78.316 L57.9825,78.316 L56.0655,83.628 L55.8105,83.628 C55.8705,83.482 55.9255,83.281 55.9745,83.025 C56.0225,82.771 56.0475,82.527 56.0475,82.296 C56.0475,81.833 55.9125,81.483 55.6455,81.246 C55.3775,81.009 55.0125,80.89 54.5505,80.89 L53.3095,80.89 L50.9535,87.479 L55.2255,87.479 C55.7125,87.479 56.1655,87.34 56.5855,87.06 C57.0055,86.78 57.3765,86.455 57.6985,86.083 C58.0215,85.712 58.2925,85.344 58.5115,84.979 C58.7305,84.614 58.8885,84.34 58.9865,84.157 L59.2415,84.157 L57.9635,87.735 L47.3585,87.735 L47.4315,87.479 L49.3115,87.479 L53.7835,74.994 L51.6655,74.994 M69.5545,74.994 L69.6275,74.738 L73.7355,74.738 C74.3555,74.738 74.9245,74.797 75.4425,74.912 C75.9585,75.027 76.4035,75.204 76.7745,75.441 C77.1455,75.679 77.4375,75.974 77.6505,76.326 C77.8625,76.68 77.9695,77.087 77.9695,77.55 C77.9695,77.964 77.8845,78.332 77.7145,78.654 C77.5435,78.977 77.3255,79.257 77.0575,79.494 C76.7895,79.731 76.4875,79.929 76.1545,80.087 C75.8195,80.245 75.4895,80.373 75.1675,80.471 C74.8455,80.567 74.5405,80.638 74.2555,80.681 C73.9695,80.723 73.7405,80.744 73.5715,80.744 L73.5335,80.78 C73.6925,80.817 73.9425,80.897 74.2835,81.018 C74.6225,81.14 74.9675,81.319 75.3145,81.557 C75.6605,81.794 75.9645,82.103 76.2265,82.487 C76.4875,82.871 76.6185,83.343 76.6185,83.902 C76.6185,84.535 76.4395,85.095 76.0805,85.581 C75.7215,86.068 75.2525,86.476 74.6755,86.805 C74.0975,87.133 73.4465,87.38 72.7225,87.544 C71.9975,87.708 71.2775,87.79 70.5585,87.79 C70.1085,87.79 69.6675,87.781 69.2355,87.763 C68.8035,87.744 68.3565,87.735 67.8935,87.735 L65.2465,87.735 L65.3205,87.479 L67.1635,87.479 L71.6725,74.994 L69.5545,74.994 L69.5545,74.994 Z M69.6465,87.525 C69.9135,87.544 70.1815,87.553 70.4485,87.553 C71.2405,87.553 71.9185,87.41 72.4855,87.124 C73.0505,86.838 73.5195,86.482 73.8905,86.056 C74.2615,85.63 74.5345,85.158 74.7115,84.642 C74.8875,84.124 74.9765,83.641 74.9765,83.19 C74.9765,82.886 74.9405,82.618 74.8675,82.387 C74.7935,82.156 74.6985,81.958 74.5835,81.794 C74.4685,81.63 74.3435,81.489 74.2095,81.374 C74.0755,81.259 73.9425,81.17 73.8085,81.109 C73.5645,80.987 73.3185,80.911 73.0695,80.881 C72.8195,80.851 72.5055,80.835 72.1285,80.835 L71.1975,80.835 L68.8425,87.462 C69.1105,87.486 69.3785,87.507 69.6465,87.525 L69.6465,87.525 Z M73.0045,80.58 C73.4795,80.58 73.9145,80.501 74.3105,80.343 C74.7055,80.185 75.0495,79.956 75.3415,79.658 C75.6335,79.36 75.8585,78.991 76.0165,78.554 C76.1745,78.115 76.2535,77.623 76.2535,77.075 C76.2535,76.454 76.0655,75.952 75.6885,75.569 C75.3115,75.185 74.7755,74.994 74.0815,74.994 L73.3155,74.994 L71.3075,80.58 L73.0045,80.58 L73.0045,80.58 Z M86.7675,74.994 L86.8405,74.738 L96.9895,74.738 L95.8765,77.842 L95.6205,77.842 C95.6695,77.708 95.7185,77.513 95.7675,77.258 C95.8155,77.002 95.8395,76.759 95.8395,76.527 C95.8395,76.077 95.7425,75.709 95.5475,75.423 C95.3535,75.138 94.9635,74.994 94.3795,74.994 L90.5285,74.994 L88.5015,80.635 L90.2175,80.635 C90.6075,80.635 90.9505,80.534 91.2485,80.333 C91.5475,80.133 91.8025,79.901 92.0155,79.64 C92.2285,79.378 92.4025,79.119 92.5355,78.864 C92.6695,78.608 92.7675,78.426 92.8275,78.316 L93.0835,78.316 L91.1665,83.628 L90.9115,83.628 C90.9725,83.482 91.0275,83.281 91.0755,83.025 C91.1235,82.771 91.1495,82.527 91.1495,82.296 C91.1495,81.833 91.0145,81.483 90.7465,81.246 C90.4795,81.009 90.1135,80.89 89.6525,80.89 L88.4105,80.89 L86.0555,87.479 L90.3265,87.479 C90.8145,87.479 91.2675,87.34 91.6875,87.06 C92.1075,86.78 92.4785,86.455 92.8005,86.083 C93.1225,85.712 93.3945,85.344 93.6125,84.979 C93.8315,84.614 93.9895,84.34 94.0875,84.157 L94.3435,84.157 L93.0655,87.735 L82.4595,87.735 L82.5335,87.479 L84.4125,87.479 L88.8855,74.994 L86.7675,74.994 M113.2535,78.262 C113.2785,78.14 113.3025,77.964 113.3265,77.732 C113.3515,77.501 113.3635,77.264 113.3635,77.021 C113.3635,76.631 113.2905,76.293 113.1445,76.007 C112.9985,75.722 112.8005,75.487 112.5515,75.305 C112.3015,75.122 112.0065,74.985 111.6655,74.894 C111.3245,74.803 110.9595,74.757 110.5715,74.757 C109.9385,74.757 109.3475,74.94 108.8005,75.305 C108.2525,75.67 107.7505,76.145 107.2935,76.729 C106.8375,77.313 106.4295,77.973 106.0715,78.709 C105.7115,79.445 105.4085,80.185 105.1575,80.927 C104.9085,81.669 104.7205,82.381 104.5925,83.063 C104.4645,83.744 104.4015,84.328 104.4015,84.815 C104.4015,85.801 104.6685,86.534 105.2035,87.015 C105.7395,87.495 106.4995,87.735 107.4865,87.735 C108.0335,87.735 108.5205,87.638 108.9465,87.443 C109.3715,87.249 109.7495,87.012 110.0775,86.731 C110.4065,86.451 110.6835,86.148 110.9085,85.818 C111.1335,85.49 111.3195,85.192 111.4655,84.924 L111.7025,85.052 C111.6295,85.198 111.4955,85.433 111.3005,85.755 C111.1065,86.077 110.8355,86.402 110.4895,86.731 C110.1415,87.06 109.7185,87.35 109.2195,87.599 C108.7205,87.848 108.1305,87.973 107.4485,87.973 C106.6215,87.973 105.9255,87.823 105.3595,87.525 C104.7935,87.228 104.3365,86.838 103.9895,86.357 C103.6435,85.877 103.3935,85.326 103.2415,84.705 C103.0895,84.085 103.0135,83.445 103.0135,82.788 C103.0135,82.046 103.1255,81.328 103.3515,80.635 C103.5755,79.94 103.8805,79.287 104.2645,78.672 C104.6475,78.058 105.0945,77.495 105.6055,76.983 C106.1165,76.473 106.6545,76.034 107.2215,75.67 C107.7865,75.305 108.3625,75.019 108.9465,74.811 C109.5295,74.605 110.0895,74.501 110.6255,74.501 C111.0275,74.501 111.3795,74.538 111.6845,74.61 C111.9875,74.684 112.2595,74.766 112.4965,74.857 C112.7345,74.948 112.9505,75.03 113.1445,75.103 C113.3385,75.177 113.5285,75.213 113.7105,75.213 C113.9045,75.213 114.0635,75.161 114.1855,75.058 C114.3065,74.955 114.4045,74.83 114.4775,74.684 L114.7505,74.738 L113.4905,78.262 L113.2535,78.262 M130.4675,78.262 C130.4915,78.14 130.5165,77.964 130.5405,77.732 C130.5655,77.501 130.5775,77.264 130.5775,77.021 C130.5775,76.631 130.5045,76.293 130.3585,76.007 C130.2125,75.722 130.0145,75.487 129.7655,75.305 C129.5155,75.122 129.2205,74.985 128.8795,74.894 C128.5385,74.803 128.1735,74.757 127.7845,74.757 C127.1525,74.757 126.5615,74.94 126.0145,75.305 C125.4665,75.67 124.9645,76.145 124.5075,76.729 C124.0515,77.313 123.6435,77.973 123.2845,78.709 C122.9255,79.445 122.6215,80.185 122.3715,80.927 C122.1225,81.669 121.9345,82.381 121.8065,83.063 C121.6785,83.744 121.6145,84.328 121.6145,84.815 C121.6145,85.801 121.8825,86.534 122.4175,87.015 C122.9525,87.495 123.7135,87.735 124.7005,87.735 C125.2465,87.735 125.7345,87.638 126.1595,87.443 C126.5855,87.249 126.9635,87.012 127.2915,86.731 C127.6195,86.451 127.8975,86.148 128.1215,85.818 C128.3475,85.49 128.5335,85.192 128.6795,84.924 L128.9165,85.052 C128.8435,85.198 128.7095,85.433 128.5145,85.755 C128.3205,86.077 128.0495,86.402 127.7025,86.731 C127.3555,87.06 126.9325,87.35 126.4335,87.599 C125.9345,87.848 125.3445,87.973 124.6625,87.973 C123.8355,87.973 123.1395,87.823 122.5725,87.525 C122.0075,87.228 121.5505,86.838 121.2035,86.357 C120.8575,85.877 120.6075,85.326 120.4555,84.705 C120.3035,84.085 120.2275,83.445 120.2275,82.788 C120.2275,82.046 120.3395,81.328 120.5655,80.635 C120.7895,79.94 121.0945,79.287 121.4785,78.672 C121.8615,78.058 122.3085,77.495 122.8195,76.983 C123.3305,76.473 123.8685,76.034 124.4355,75.67 C125.0005,75.305 125.5755,75.019 126.1595,74.811 C126.7435,74.605 127.3035,74.501 127.8395,74.501 C128.2405,74.501 128.5935,74.538 128.8985,74.61 C129.2015,74.684 129.4735,74.766 129.7105,74.857 C129.9485,74.948 130.1635,75.03 130.3585,75.103 C130.5525,75.177 130.7425,75.213 130.9245,75.213 C131.1185,75.213 131.2775,75.161 131.3995,75.058 C131.5205,74.955 131.6175,74.83 131.6915,74.684 L131.9645,74.738 L130.7045,78.262 L130.4675,78.262 M136.1445,87.479 L145.3085,74.446 L145.7285,74.446 L146.0565,87.479 L148.0285,87.479 L147.9545,87.735 L142.3325,87.735 L142.4055,87.479 L144.3955,87.479 L144.2855,82.369 L140.0875,82.369 L136.5095,87.479 L138.3535,87.479 L138.2795,87.735 L134.5205,87.735 L134.5935,87.479 L136.1445,87.479 L136.1445,87.479 Z M144.1765,76.564 L140.2705,82.113 L144.2855,82.113 L144.2125,76.564 L144.1765,76.564 L144.1765,76.564 Z M161.4815,74.593 L153.6145,88.064 L153.2845,87.882 L161.1535,74.41 L161.4815,74.593 M169.6585,74.994 L169.7325,74.738 L175.3905,74.738 L175.3175,74.994 L173.4015,74.994 L168.9285,87.479 L173.1995,87.479 C173.6745,87.479 174.1185,87.343 174.5325,87.069 C174.9465,86.795 175.3145,86.473 175.6365,86.102 C175.9585,85.73 176.2335,85.359 176.4585,84.988 C176.6835,84.617 176.8505,84.34 176.9605,84.157 L177.2155,84.157 L175.9385,87.735 L165.3325,87.735 L165.4065,87.479 L167.2855,87.479 L171.7575,74.994 L169.6585,74.994 M183.8415,87.479 L193.0055,74.446 L193.4255,74.446 L193.7535,87.479 L195.7255,87.479 L195.6525,87.735 L190.0295,87.735 L190.1035,87.479 L192.0925,87.479 L191.9835,82.369 L187.7845,82.369 L184.2065,87.479 L186.0505,87.479 L185.9775,87.735 L182.2175,87.735 L182.2905,87.479 L183.8415,87.479 L183.8415,87.479 Z M191.8735,76.564 L187.9675,82.113 L191.9835,82.113 L191.9095,76.564 L191.8735,76.564 L191.8735,76.564 Z M203.0075,84.14 C202.9465,84.322 202.8925,84.495 202.8435,84.659 C202.7945,84.824 202.7705,85.01 202.7705,85.216 C202.7705,85.63 202.8675,85.995 203.0625,86.312 C203.2565,86.628 203.5125,86.89 203.8285,87.097 C204.1455,87.304 204.4985,87.462 204.8885,87.571 C205.2775,87.681 205.6725,87.735 206.0735,87.735 C206.6105,87.735 207.0905,87.659 207.5165,87.507 C207.9425,87.356 208.3015,87.143 208.5935,86.868 C208.8855,86.595 209.1075,86.272 209.2595,85.9 C209.4115,85.529 209.4875,85.125 209.4875,84.687 C209.4875,84.237 209.3875,83.838 209.1865,83.491 C208.9865,83.145 208.7085,82.807 208.3565,82.478 L207.0605,81.292 C206.4765,80.769 206.0165,80.248 205.6825,79.731 C205.3475,79.214 205.1805,78.627 205.1805,77.97 C205.1805,77.458 205.2955,76.99 205.5275,76.564 C205.7575,76.138 206.0685,75.773 206.4575,75.469 C206.8475,75.165 207.2945,74.928 207.7995,74.757 C208.3045,74.587 208.8245,74.501 209.3605,74.501 C209.7375,74.501 210.0695,74.535 210.3555,74.602 C210.6405,74.669 210.9035,74.745 211.1405,74.83 C211.3775,74.915 211.5965,74.991 211.7965,75.058 C211.9975,75.125 212.2015,75.158 212.4085,75.158 C212.5915,75.158 212.7315,75.116 212.8285,75.03 C212.9255,74.945 213.0045,74.83 213.0665,74.684 L213.3395,74.738 L212.0795,78.225 L211.8615,78.225 C211.8855,78.128 211.9185,77.991 211.9615,77.815 C212.0035,77.638 212.0255,77.416 212.0255,77.148 C212.0255,76.71 211.9515,76.339 211.8065,76.034 C211.6595,75.731 211.4655,75.484 211.2225,75.295 C210.9785,75.106 210.6965,74.97 210.3725,74.885 C210.0505,74.8 209.7125,74.757 209.3605,74.757 C208.9215,74.757 208.5205,74.817 208.1545,74.94 C207.7905,75.062 207.4775,75.226 207.2155,75.433 C206.9535,75.64 206.7495,75.889 206.6045,76.181 C206.4575,76.473 206.3845,76.795 206.3845,77.148 C206.3845,77.672 206.5305,78.125 206.8235,78.508 C207.1145,78.892 207.4435,79.247 207.8085,79.576 L209.4335,81.036 C209.8705,81.426 210.2455,81.864 210.5555,82.351 C210.8655,82.837 211.0215,83.379 211.0215,83.975 C211.0215,84.438 210.9145,84.906 210.7015,85.381 C210.4885,85.856 210.1725,86.284 209.7525,86.668 C209.3325,87.051 208.8065,87.364 208.1735,87.607 C207.5405,87.851 206.8045,87.973 205.9645,87.973 C205.5275,87.973 205.1405,87.936 204.8055,87.863 C204.4715,87.79 204.1665,87.705 203.8935,87.607 C203.6185,87.511 203.3635,87.425 203.1265,87.352 C202.8895,87.279 202.6545,87.242 202.4235,87.242 C202.2655,87.242 202.1195,87.301 201.9855,87.416 C201.8515,87.531 201.7735,87.662 201.7475,87.809 L201.4925,87.754 L202.7705,84.14 L203.0075,84.14 M224.8035,74.994 C224.3285,74.994 223.8875,75.128 223.4805,75.396 C223.0715,75.663 222.7105,75.977 222.3945,76.336 C222.0765,76.695 221.8065,77.06 221.5815,77.431 C221.3565,77.803 221.1895,78.091 221.0795,78.298 L220.8235,78.298 L222.0835,74.738 L230.8265,74.738 L219.8015,87.479 L224.7845,87.479 C225.2595,87.479 225.6985,87.343 226.0995,87.069 C226.5005,86.795 226.8605,86.473 227.1765,86.102 C227.4925,85.73 227.7635,85.359 227.9895,84.988 C228.2135,84.617 228.3815,84.34 228.4905,84.157 L228.7455,84.157 L227.4505,87.735 L217.6845,87.735 L228.6915,74.994 L224.8035,74.994 M238.5295,74.994 L238.6035,74.738 L244.2615,74.738 L244.1885,74.994 L242.2725,74.994 L237.7995,87.479 L242.0715,87.479 C242.5455,87.479 242.9895,87.343 243.4045,87.069 C243.8175,86.795 244.1855,86.473 244.5075,86.102 C244.8295,85.73 245.1045,85.359 245.3295,84.988 C245.5545,84.617 245.7215,84.34 245.8315,84.157 L246.0865,84.157 L244.8095,87.735 L234.2035,87.735 L234.2775,87.479 L236.1565,87.479 L240.6285,74.994 L238.5295,74.994 M254.1005,80.69 C254.3195,80.008 254.6145,79.36 254.9865,78.745 C255.3575,78.131 255.7975,77.565 256.3095,77.048 C256.8205,76.53 257.3645,76.083 257.9435,75.706 C258.5205,75.329 259.1195,75.034 259.7405,74.82 C260.3615,74.607 260.9755,74.501 261.5845,74.501 C262.3755,74.501 263.0415,74.663 263.5835,74.985 C264.1245,75.308 264.5625,75.725 264.8975,76.235 C265.2325,76.746 265.4725,77.315 265.6185,77.942 C265.7645,78.569 265.8375,79.187 265.8375,79.795 C265.8375,80.452 265.7375,81.112 265.5365,81.775 C265.3355,82.439 265.0555,83.071 264.6965,83.674 C264.3375,84.276 263.9085,84.839 263.4095,85.362 C262.9105,85.886 262.3685,86.342 261.7845,86.731 C261.2005,87.121 260.5835,87.425 259.9325,87.645 C259.2815,87.863 258.6145,87.973 257.9335,87.973 C257.3255,87.973 256.7655,87.86 256.2545,87.635 C255.7425,87.41 255.3055,87.078 254.9405,86.64 C254.5745,86.202 254.2885,85.657 254.0815,85.007 C253.8745,84.356 253.7725,83.603 253.7725,82.752 C253.7725,82.059 253.8815,81.371 254.1005,80.69 L254.1005,80.69 Z M255.2865,85.946 C255.3715,86.3 255.5245,86.606 255.7425,86.868 C255.9625,87.13 256.2575,87.34 256.6285,87.498 C256.9995,87.656 257.4715,87.735 258.0425,87.735 C258.7615,87.735 259.4145,87.553 260.0055,87.188 C260.5955,86.822 261.1245,86.348 261.5935,85.764 C262.0625,85.18 262.4725,84.523 262.8255,83.793 C263.1785,83.063 263.4675,82.326 263.6935,81.584 C263.9175,80.842 264.0875,80.133 264.2035,79.457 C264.3195,78.782 264.3775,78.213 264.3775,77.75 C264.3775,76.801 264.1525,76.065 263.7015,75.542 C263.2515,75.019 262.5335,74.757 261.5475,74.757 C260.8655,74.757 260.2365,74.934 259.6585,75.286 C259.0805,75.64 258.5545,76.102 258.0795,76.674 C257.6055,77.245 257.1855,77.894 256.8205,78.617 C256.4545,79.342 256.1515,80.078 255.9065,80.826 C255.6635,81.574 255.4785,82.302 255.3505,83.008 C255.2235,83.714 255.1585,84.328 255.1585,84.852 C255.1585,85.228 255.2015,85.594 255.2865,85.946 L255.2865,85.946 Z" id="Fill-2" sketch:type="MSShapeGroup"></path>
        </g>
    </g>
</svg>