<svg xmlns="http://www.w3.org/2000/svg" xmlns:xlink="http://www.w3.org/1999/xlink" xmlns:sketch="http://www.bohemiancoding.com/sketch/ns" width="236" height="15" viewBox="0 0 236 15" version="1.1">
  <g id="Page-1" stroke="none" stroke-width="1" fill="none" fill-rule="evenodd" sketch:type="MSPage">
    <g id="Landscape" sketch:type="MSArtboardGroup" transform="translate(-30.000000, -74.000000)" fill="#FFFFFF">
      <path d="M34.47 74.99L34.58 74.74 39.02 74.74C39.44 74.74 39.88 74.79 40.34 74.89 40.8 74.98 41.21 75.14 41.58 75.37 41.95 75.59 42.26 75.89 42.5 76.24 42.75 76.6 42.87 77.05 42.87 77.57 42.87 78.01 42.77 78.39 42.58 78.72 42.4 79.05 42.15 79.32 41.86 79.55 41.57 79.77 41.25 79.96 40.9 80.11 40.54 80.25 40.2 80.37 39.87 80.46 39.55 80.55 39.25 80.62 38.98 80.65 38.71 80.69 38.52 80.71 38.41 80.73L38.38 80.78C38.57 80.81 38.82 80.85 39.13 80.93 39.43 81 39.72 81.12 40.01 81.29 40.3 81.46 40.54 81.69 40.75 81.97 40.96 82.25 41.06 82.61 41.06 83.04 41.06 83.35 41.04 83.64 40.99 83.93 40.94 84.22 40.89 84.5 40.83 84.77 40.78 85.04 40.73 85.32 40.68 85.6 40.63 85.88 40.6 86.17 40.6 86.48 40.6 86.82 40.7 87.09 40.88 87.29 41.06 87.49 41.29 87.59 41.57 87.59 41.67 87.59 41.77 87.58 41.87 87.56 41.98 87.54 42.05 87.52 42.1 87.5L42.17 87.74C42.11 87.75 41.99 87.77 41.82 87.79 41.64 87.82 41.46 87.83 41.28 87.83 40.95 87.83 40.65 87.79 40.38 87.73 40.1 87.66 39.86 87.55 39.65 87.4 39.45 87.25 39.29 87.05 39.17 86.8 39.06 86.55 39 86.24 39 85.87 39 85.69 39.02 85.45 39.06 85.16 39.1 84.87 39.16 84.56 39.22 84.23 39.27 83.91 39.31 83.6 39.35 83.28 39.4 82.97 39.42 82.69 39.42 82.46 39.42 82.24 39.38 82.03 39.32 81.83 39.25 81.63 39.13 81.46 38.94 81.31 38.76 81.16 38.5 81.05 38.18 80.96 37.85 80.88 37.42 80.83 36.9 80.83L36.15 80.83 33.76 87.48 35.86 87.48 35.77 87.74 30.16 87.74 30.25 87.48 32.12 87.48 36.57 74.99 34.47 74.99 34.47 74.99ZM37.45 80.58C37.93 80.58 38.36 80.54 38.74 80.45 39.12 80.37 39.41 80.26 39.62 80.12 39.79 80.01 39.96 79.87 40.15 79.7 40.33 79.53 40.49 79.32 40.64 79.07 40.79 78.82 40.91 78.53 41.01 78.2 41.1 77.86 41.15 77.47 41.15 77.02 41.15 76.34 40.94 75.83 40.53 75.5 40.12 75.16 39.61 74.99 39 74.99L38.23 74.99 36.22 80.58 37.45 80.58 37.45 80.58ZM51.67 74.99L51.74 74.74 61.89 74.74 60.78 77.84 60.52 77.84C60.57 77.71 60.62 77.51 60.67 77.26 60.71 77 60.74 76.76 60.74 76.53 60.74 76.08 60.64 75.71 60.45 75.42 60.25 75.14 59.86 74.99 59.28 74.99L55.43 74.99 53.4 80.64 55.12 80.64C55.51 80.64 55.85 80.53 56.15 80.33 56.45 80.13 56.7 79.9 56.91 79.64 57.13 79.38 57.3 79.12 57.43 78.86 57.57 78.61 57.67 78.43 57.73 78.32L57.98 78.32 56.07 83.63 55.81 83.63C55.87 83.48 55.93 83.28 55.97 83.03 56.02 82.77 56.05 82.53 56.05 82.3 56.05 81.83 55.91 81.48 55.65 81.25 55.38 81.01 55.01 80.89 54.55 80.89L53.31 80.89 50.95 87.48 55.23 87.48C55.71 87.48 56.17 87.34 56.59 87.06 57.01 86.78 57.38 86.46 57.7 86.08 58.02 85.71 58.29 85.34 58.51 84.98 58.73 84.61 58.89 84.34 58.99 84.16L59.24 84.16 57.96 87.74 47.36 87.74 47.43 87.48 49.31 87.48 53.78 74.99 51.67 74.99M69.55 74.99L69.63 74.74 73.74 74.74C74.36 74.74 74.92 74.8 75.44 74.91 75.96 75.03 76.4 75.2 76.77 75.44 77.15 75.68 77.44 75.97 77.65 76.33 77.86 76.68 77.97 77.09 77.97 77.55 77.97 77.96 77.88 78.33 77.71 78.65 77.54 78.98 77.33 79.26 77.06 79.49 76.79 79.73 76.49 79.93 76.15 80.09 75.82 80.25 75.49 80.37 75.17 80.47 74.85 80.57 74.54 80.64 74.26 80.68 73.97 80.72 73.74 80.74 73.57 80.74L73.53 80.78C73.69 80.82 73.94 80.9 74.28 81.02 74.62 81.14 74.97 81.32 75.31 81.56 75.66 81.79 75.96 82.1 76.23 82.49 76.49 82.87 76.62 83.34 76.62 83.9 76.62 84.54 76.44 85.1 76.08 85.58 75.72 86.07 75.25 86.48 74.68 86.81 74.1 87.13 73.45 87.38 72.72 87.54 72 87.71 71.28 87.79 70.56 87.79 70.11 87.79 69.67 87.78 69.24 87.76 68.8 87.74 68.36 87.74 67.89 87.74L65.25 87.74 65.32 87.48 67.16 87.48 71.67 74.99 69.55 74.99 69.55 74.99ZM69.65 87.53C69.91 87.54 70.18 87.55 70.45 87.55 71.24 87.55 71.92 87.41 72.49 87.12 73.05 86.84 73.52 86.48 73.89 86.06 74.26 85.63 74.53 85.16 74.71 84.64 74.89 84.12 74.98 83.64 74.98 83.19 74.98 82.89 74.94 82.62 74.87 82.39 74.79 82.16 74.7 81.96 74.58 81.79 74.47 81.63 74.34 81.49 74.21 81.37 74.08 81.26 73.94 81.17 73.81 81.11 73.56 80.99 73.32 80.91 73.07 80.88 72.82 80.85 72.51 80.83 72.13 80.83L71.2 80.83 68.84 87.46C69.11 87.49 69.38 87.51 69.65 87.53L69.65 87.53ZM73 80.58C73.48 80.58 73.91 80.5 74.31 80.34 74.71 80.19 75.05 79.96 75.34 79.66 75.63 79.36 75.86 78.99 76.02 78.55 76.17 78.11 76.25 77.62 76.25 77.08 76.25 76.45 76.07 75.95 75.69 75.57 75.31 75.19 74.78 74.99 74.08 74.99L73.32 74.99 71.31 80.58 73 80.58 73 80.58ZM86.77 74.99L86.84 74.74 96.99 74.74 95.88 77.84 95.62 77.84C95.67 77.71 95.72 77.51 95.77 77.26 95.82 77 95.84 76.76 95.84 76.53 95.84 76.08 95.74 75.71 95.55 75.42 95.35 75.14 94.96 74.99 94.38 74.99L90.53 74.99 88.5 80.64 90.22 80.64C90.61 80.64 90.95 80.53 91.25 80.33 91.55 80.13 91.8 79.9 92.02 79.64 92.23 79.38 92.4 79.12 92.54 78.86 92.67 78.61 92.77 78.43 92.83 78.32L93.08 78.32 91.17 83.63 90.91 83.63C90.97 83.48 91.03 83.28 91.08 83.03 91.12 82.77 91.15 82.53 91.15 82.3 91.15 81.83 91.01 81.48 90.75 81.25 90.48 81.01 90.11 80.89 89.65 80.89L88.41 80.89 86.06 87.48 90.33 87.48C90.81 87.48 91.27 87.34 91.69 87.06 92.11 86.78 92.48 86.46 92.8 86.08 93.12 85.71 93.39 85.34 93.61 84.98 93.83 84.61 93.99 84.34 94.09 84.16L94.34 84.16 93.07 87.74 82.46 87.74 82.53 87.48 84.41 87.48 88.89 74.99 86.77 74.99M113.25 78.26C113.28 78.14 113.3 77.96 113.33 77.73 113.35 77.5 113.36 77.26 113.36 77.02 113.36 76.63 113.29 76.29 113.14 76.01 113 75.72 112.8 75.49 112.55 75.31 112.3 75.12 112.01 74.99 111.67 74.89 111.32 74.8 110.96 74.76 110.57 74.76 109.94 74.76 109.35 74.94 108.8 75.31 108.25 75.67 107.75 76.15 107.29 76.73 106.84 77.31 106.43 77.97 106.07 78.71 105.71 79.44 105.41 80.19 105.16 80.93 104.91 81.67 104.72 82.38 104.59 83.06 104.46 83.74 104.4 84.33 104.4 84.82 104.4 85.8 104.67 86.53 105.2 87.02 105.74 87.5 106.5 87.74 107.49 87.74 108.03 87.74 108.52 87.64 108.95 87.44 109.37 87.25 109.75 87.01 110.08 86.73 110.41 86.45 110.68 86.15 110.91 85.82 111.13 85.49 111.32 85.19 111.47 84.92L111.7 85.05C111.63 85.2 111.5 85.43 111.3 85.76 111.11 86.08 110.84 86.4 110.49 86.73 110.14 87.06 109.72 87.35 109.22 87.6 108.72 87.85 108.13 87.97 107.45 87.97 106.62 87.97 105.93 87.82 105.36 87.53 104.79 87.23 104.34 86.84 103.99 86.36 103.64 85.88 103.39 85.33 103.24 84.71 103.09 84.09 103.01 83.45 103.01 82.79 103.01 82.05 103.13 81.33 103.35 80.64 103.58 79.94 103.88 79.29 104.26 78.67 104.65 78.06 105.09 77.5 105.61 76.98 106.12 76.47 106.65 76.03 107.22 75.67 107.79 75.31 108.36 75.02 108.95 74.81 109.53 74.61 110.09 74.5 110.63 74.5 111.03 74.5 111.38 74.54 111.68 74.61 111.99 74.68 112.26 74.77 112.5 74.86 112.73 74.95 112.95 75.03 113.14 75.1 113.34 75.18 113.53 75.21 113.71 75.21 113.9 75.21 114.06 75.16 114.19 75.06 114.31 74.96 114.4 74.83 114.48 74.68L114.75 74.74 113.49 78.26 113.25 78.26M130.47 78.26C130.49 78.14 130.52 77.96 130.54 77.73 130.57 77.5 130.58 77.26 130.58 77.02 130.58 76.63 130.5 76.29 130.36 76.01 130.21 75.72 130.01 75.49 129.77 75.31 129.52 75.12 129.22 74.99 128.88 74.89 128.54 74.8 128.17 74.76 127.78 74.76 127.15 74.76 126.56 74.94 126.01 75.31 125.47 75.67 124.96 76.15 124.51 76.73 124.05 77.31 123.64 77.97 123.28 78.71 122.93 79.44 122.62 80.19 122.37 80.93 122.12 81.67 121.93 82.38 121.81 83.06 121.68 83.74 121.61 84.33 121.61 84.82 121.61 85.8 121.88 86.53 122.42 87.02 122.95 87.5 123.71 87.74 124.7 87.74 125.25 87.74 125.73 87.64 126.16 87.44 126.59 87.25 126.96 87.01 127.29 86.73 127.62 86.45 127.9 86.15 128.12 85.82 128.35 85.49 128.53 85.19 128.68 84.92L128.92 85.05C128.84 85.2 128.71 85.43 128.51 85.76 128.32 86.08 128.05 86.4 127.7 86.73 127.36 87.06 126.93 87.35 126.43 87.6 125.93 87.85 125.34 87.97 124.66 87.97 123.84 87.97 123.14 87.82 122.57 87.53 122.01 87.23 121.55 86.84 121.2 86.36 120.86 85.88 120.61 85.33 120.46 84.71 120.3 84.09 120.23 83.45 120.23 82.79 120.23 82.05 120.34 81.33 120.57 80.64 120.79 79.94 121.09 79.29 121.48 78.67 121.86 78.06 122.31 77.5 122.82 76.98 123.33 76.47 123.87 76.03 124.44 75.67 125 75.31 125.58 75.02 126.16 74.81 126.74 74.61 127.3 74.5 127.84 74.5 128.24 74.5 128.59 74.54 128.9 74.61 129.2 74.68 129.47 74.77 129.71 74.86 129.95 74.95 130.16 75.03 130.36 75.1 130.55 75.18 130.74 75.21 130.92 75.21 131.12 75.21 131.28 75.16 131.4 75.06 131.52 74.96 131.62 74.83 131.69 74.68L131.96 74.74 130.7 78.26 130.47 78.26M136.14 87.48L145.31 74.45 145.73 74.45 146.06 87.48 148.03 87.48 147.95 87.74 142.33 87.74 142.41 87.48 144.4 87.48 144.29 82.37 140.09 82.37 136.51 87.48 138.35 87.48 138.28 87.74 134.52 87.74 134.59 87.48 136.14 87.48 136.14 87.48ZM144.18 76.56L140.27 82.11 144.29 82.11 144.21 76.56 144.18 76.56 144.18 76.56ZM161.48 74.59L153.61 88.06 153.28 87.88 161.15 74.41 161.48 74.59M169.66 74.99L169.73 74.74 175.39 74.74 175.32 74.99 173.4 74.99 168.93 87.48 173.2 87.48C173.67 87.48 174.12 87.34 174.53 87.07 174.95 86.8 175.31 86.47 175.64 86.1 175.96 85.73 176.23 85.36 176.46 84.99 176.68 84.62 176.85 84.34 176.96 84.16L177.22 84.16 175.94 87.74 165.33 87.74 165.41 87.48 167.29 87.48 171.76 74.99 169.66 74.99M183.84 87.48L193.01 74.45 193.43 74.45 193.75 87.48 195.73 87.48 195.65 87.74 190.03 87.74 190.1 87.48 192.09 87.48 191.98 82.37 187.78 82.37 184.21 87.48 186.05 87.48 185.98 87.74 182.22 87.74 182.29 87.48 183.84 87.48 183.84 87.48ZM191.87 76.56L187.97 82.11 191.98 82.11 191.91 76.56 191.87 76.56 191.87 76.56ZM203.01 84.14C202.95 84.32 202.89 84.5 202.84 84.66 202.79 84.82 202.77 85.01 202.77 85.22 202.77 85.63 202.87 86 203.06 86.31 203.26 86.63 203.51 86.89 203.83 87.1 204.15 87.3 204.5 87.46 204.89 87.57 205.28 87.68 205.67 87.74 206.07 87.74 206.61 87.74 207.09 87.66 207.52 87.51 207.94 87.36 208.3 87.14 208.59 86.87 208.89 86.6 209.11 86.27 209.26 85.9 209.41 85.53 209.49 85.13 209.49 84.69 209.49 84.24 209.39 83.84 209.19 83.49 208.99 83.15 208.71 82.81 208.36 82.48L207.06 81.29C206.48 80.77 206.02 80.25 205.68 79.73 205.35 79.21 205.18 78.63 205.18 77.97 205.18 77.46 205.3 76.99 205.53 76.56 205.76 76.14 206.07 75.77 206.46 75.47 206.85 75.17 207.29 74.93 207.8 74.76 208.3 74.59 208.82 74.5 209.36 74.5 209.74 74.5 210.07 74.54 210.36 74.6 210.64 74.67 210.9 74.75 211.14 74.83 211.38 74.92 211.6 74.99 211.8 75.06 212 75.13 212.2 75.16 212.41 75.16 212.59 75.16 212.73 75.12 212.83 75.03 212.93 74.94 213 74.83 213.07 74.68L213.34 74.74 212.08 78.22 211.86 78.22C211.89 78.13 211.92 77.99 211.96 77.82 212 77.64 212.03 77.42 212.03 77.15 212.03 76.71 211.95 76.34 211.81 76.03 211.66 75.73 211.47 75.48 211.22 75.3 210.98 75.11 210.7 74.97 210.37 74.89 210.05 74.8 209.71 74.76 209.36 74.76 208.92 74.76 208.52 74.82 208.15 74.94 207.79 75.06 207.48 75.23 207.22 75.43 206.95 75.64 206.75 75.89 206.6 76.18 206.46 76.47 206.38 76.8 206.38 77.15 206.38 77.67 206.53 78.13 206.82 78.51 207.11 78.89 207.44 79.25 207.81 79.58L209.43 81.04C209.87 81.43 210.25 81.86 210.56 82.35 210.87 82.84 211.02 83.38 211.02 83.98 211.02 84.44 210.91 84.91 210.7 85.38 210.49 85.86 210.17 86.28 209.75 86.67 209.33 87.05 208.81 87.36 208.17 87.61 207.54 87.85 206.8 87.97 205.96 87.97 205.53 87.97 205.14 87.94 204.81 87.86 204.47 87.79 204.17 87.71 203.89 87.61 203.62 87.51 203.36 87.43 203.13 87.35 202.89 87.28 202.65 87.24 202.42 87.24 202.27 87.24 202.12 87.3 201.99 87.42 201.85 87.53 201.77 87.66 201.75 87.81L201.49 87.75 202.77 84.14 203.01 84.14M224.8 74.99C224.33 74.99 223.89 75.13 223.48 75.4 223.07 75.66 222.71 75.98 222.39 76.34 222.08 76.69 221.81 77.06 221.58 77.43 221.36 77.8 221.19 78.09 221.08 78.3L220.82 78.3 222.08 74.74 230.83 74.74 219.8 87.48 224.78 87.48C225.26 87.48 225.7 87.34 226.1 87.07 226.5 86.8 226.86 86.47 227.18 86.1 227.49 85.73 227.76 85.36 227.99 84.99 228.21 84.62 228.38 84.34 228.49 84.16L228.75 84.16 227.45 87.74 217.68 87.74 228.69 74.99 224.8 74.99M238.53 74.99L238.6 74.74 244.26 74.74 244.19 74.99 242.27 74.99 237.8 87.48 242.07 87.48C242.55 87.48 242.99 87.34 243.4 87.07 243.82 86.8 244.19 86.47 244.51 86.1 244.83 85.73 245.1 85.36 245.33 84.99 245.55 84.62 245.72 84.34 245.83 84.16L246.09 84.16 244.81 87.74 234.2 87.74 234.28 87.48 236.16 87.48 240.63 74.99 238.53 74.99M254.1 80.69C254.32 80.01 254.61 79.36 254.99 78.75 255.36 78.13 255.8 77.57 256.31 77.05 256.82 76.53 257.36 76.08 257.94 75.71 258.52 75.33 259.12 75.03 259.74 74.82 260.36 74.61 260.98 74.5 261.58 74.5 262.38 74.5 263.04 74.66 263.58 74.99 264.12 75.31 264.56 75.72 264.9 76.24 265.23 76.75 265.47 77.32 265.62 77.94 265.76 78.57 265.84 79.19 265.84 79.8 265.84 80.45 265.74 81.11 265.54 81.78 265.34 82.44 265.06 83.07 264.7 83.67 264.34 84.28 263.91 84.84 263.41 85.36 262.91 85.89 262.37 86.34 261.78 86.73 261.2 87.12 260.58 87.43 259.93 87.65 259.28 87.86 258.61 87.97 257.93 87.97 257.33 87.97 256.77 87.86 256.25 87.64 255.74 87.41 255.31 87.08 254.94 86.64 254.57 86.2 254.29 85.66 254.08 85.01 253.87 84.36 253.77 83.6 253.77 82.75 253.77 82.06 253.88 81.37 254.1 80.69L254.1 80.69ZM255.29 85.95C255.37 86.3 255.52 86.61 255.74 86.87 255.96 87.13 256.26 87.34 256.63 87.5 257 87.66 257.47 87.74 258.04 87.74 258.76 87.74 259.41 87.55 260.01 87.19 260.6 86.82 261.12 86.35 261.59 85.76 262.06 85.18 262.47 84.52 262.83 83.79 263.18 83.06 263.47 82.33 263.69 81.58 263.92 80.84 264.09 80.13 264.2 79.46 264.32 78.78 264.38 78.21 264.38 77.75 264.38 76.8 264.15 76.07 263.7 75.54 263.25 75.02 262.53 74.76 261.55 74.76 260.87 74.76 260.24 74.93 259.66 75.29 259.08 75.64 258.55 76.1 258.08 76.67 257.61 77.25 257.19 77.89 256.82 78.62 256.45 79.34 256.15 80.08 255.91 80.83 255.66 81.57 255.48 82.3 255.35 83.01 255.22 83.71 255.16 84.33 255.16 84.85 255.16 85.23 255.2 85.59 255.29 85.95L255.29 85.95Z" id="Fill-2" sketch:type="MSShapeGroup"/>
    </g>
  </g>
</svg>
